<svg width="721" height="171" viewBox="0 0 721 171" fill="none" xmlns="http://www.w3.org/2000/svg">
<path d="M191.436 67.4528V53.7961H206.963V39.9524C206.963 30.5985 209.395 24.0508 214.072 19.9351C218.936 15.8194 226.419 14.1357 236.147 14.1357C238.766 14.1357 241.946 14.3228 245.127 14.5099V28.9148C228.664 27.7924 224.361 30.4115 224.361 40.7007V53.7961H244.94V67.4528H224.361V154.257H206.963V67.4528H191.436Z" fill="white"/>
<path d="M280.851 156.314C261.769 156.314 246.803 146.961 246.803 127.692C246.803 104.307 264.014 99.2559 290.018 96.0756C304.797 94.3919 314.338 91.9599 314.338 81.6706C314.338 70.8202 306.668 64.0854 292.824 64.0854C276.923 64.0854 269.252 71.5685 268.691 83.5414H251.854C252.603 66.5174 265.511 51.3641 292.637 51.3641C302.178 51.3641 310.596 53.0478 316.957 56.7894C325.376 61.8404 330.427 70.6331 330.427 84.1026V131.059C330.427 140.44 330.427 155.192 330.427 155.192H314.525L314.712 139.478H314.525C308.164 148.27 297.875 156.314 280.851 156.314ZM285.154 143.593C305.171 143.593 314.525 128.814 314.525 117.215V100.753C309.474 103.933 300.681 106.365 292.45 107.861C275.987 110.668 265.137 113.661 265.137 127.505C265.137 140.413 275.052 143.593 285.154 143.593Z" fill="white"/>
<path d="M389.852 157.25C376.383 157.25 364.971 151.263 358.423 140.039H357.862V154.257H340.651V15.0711H358.049V50.6158C358.049 58.286 357.675 65.3949 357.488 69.6977H358.049C364.597 59.0343 375.822 51.3641 390.414 51.3641C415.856 51.3641 433.254 71.1943 433.254 104.307C433.254 136.671 416.979 157.25 389.852 157.25ZM387.982 142.845C406.502 142.845 415.482 126.569 415.482 104.494C415.482 82.4189 406.502 65.9561 388.169 65.9561C366.842 65.9561 357.114 83.1673 357.114 104.494C357.114 126.382 367.403 142.845 387.982 142.845Z" fill="white"/>
<path d="M459.585 53.7961V71.9426H460.147C466.32 60.3438 476.609 52.4866 489.892 52.4866C492.698 52.4866 494.382 52.8607 496.253 53.609V70.0718H495.691C493.259 69.3235 491.576 69.1365 488.582 69.1365C473.055 69.1365 459.772 80.7353 459.772 99.6301V154.257H442.374V53.7961H459.585Z" fill="white"/>
<path d="M503.531 35.2755V15.0711H521.678V35.2755H503.531ZM503.905 154.257V53.7961H521.303V154.257H503.905Z" fill="white"/>
<path d="M579.616 157.063C549.309 157.063 530.415 133.491 530.415 104.12C530.415 74.9359 549.309 51.3641 579.616 51.3641C609.922 51.3641 628.443 74.9359 628.443 104.12C628.443 133.491 609.922 157.063 579.616 157.063ZM579.429 142.845C600.007 142.845 610.671 125.821 610.671 104.12C610.671 82.4189 600.007 65.2078 579.429 65.2078C558.85 65.2078 548.187 82.4189 548.187 104.12C548.187 125.821 558.85 142.845 579.429 142.845Z" fill="white"/>
<path d="M654.774 53.7961V68.014H655.335C662.631 57.9118 672.547 51.3641 687.139 51.3641C708.091 51.3641 721 63.15 721 84.1026V154.257H703.788V86.1605C703.788 73.2522 695.37 65.9561 681.713 65.9561C666.186 65.9561 654.961 76.9937 654.961 93.0824V154.257H637.563V53.7961H654.774Z" fill="white"/>
<path d="M75.499 7.10156C76.9756 7.10156 78.1728 8.2988 78.1729 9.77539C78.1729 11.252 76.9757 12.4492 75.499 12.4492C74.0224 12.4492 72.8252 11.252 72.8252 9.77539C72.8252 8.29884 74.0225 7.10162 75.499 7.10156Z" fill="#FE161E" stroke="#FE161E" stroke-width="12.4771"/>
<path d="M9.54883 46.3145C11.0254 46.3145 12.2226 47.5117 12.2227 48.9883C12.2227 50.4649 11.0255 51.6621 9.54883 51.6621C8.07224 51.6621 6.875 50.4649 6.875 48.9883C6.87505 47.5117 8.07227 46.3145 9.54883 46.3145Z" fill="#FE161E" stroke="#FE161E" stroke-width="12.4771"/>
<path d="M9.54883 121.178C11.0254 121.178 12.2226 122.375 12.2227 123.852C12.2227 125.328 11.0255 126.525 9.54883 126.525C8.07224 126.525 6.875 125.328 6.875 123.852C6.87505 122.375 8.07227 121.178 9.54883 121.178Z" fill="#FE161E" stroke="#FE161E" stroke-width="12.4771"/>
<path d="M75.499 158.606C76.9756 158.606 78.1728 159.804 78.1729 161.28C78.1729 162.757 76.9757 163.954 75.499 163.954C74.0224 163.954 72.8252 162.757 72.8252 161.28C72.8252 159.804 74.0225 158.606 75.499 158.606Z" fill="#FE161E" stroke="#FE161E" stroke-width="12.4771"/>
<path d="M141.449 121.178C142.926 121.178 144.123 122.375 144.123 123.852C144.123 125.328 142.926 126.525 141.449 126.525C139.973 126.525 138.775 125.328 138.775 123.852C138.775 122.375 139.973 121.178 141.449 121.178Z" fill="#FE161E" stroke="#FE161E" stroke-width="12.4771"/>
<path d="M141.449 46.3145C142.926 46.3145 144.123 47.5117 144.123 48.9883C144.123 50.4649 142.926 51.6621 141.449 51.6621C139.973 51.6621 138.775 50.4649 138.775 48.9883C138.775 47.5117 139.973 46.3145 141.449 46.3145Z" fill="#FE161E" stroke="#FE161E" stroke-width="12.4771"/>
<path d="M75.499 83.7461C76.9756 83.7461 78.1728 84.9433 78.1729 86.4199C78.1729 87.8966 76.9757 89.0938 75.499 89.0938C74.0224 89.0937 72.8252 87.8965 72.8252 86.4199C72.8252 84.9434 74.0225 83.7461 75.499 83.7461Z" fill="#FE161E" stroke="#FE161E" stroke-width="12.4771"/>
<path d="M75.499 62.3584C76.9756 62.3584 78.1728 63.5556 78.1729 65.0322C78.1729 66.5089 76.9757 67.7061 75.499 67.7061C74.0224 67.706 72.8252 66.5088 72.8252 65.0322C72.8252 63.5557 74.0225 62.3585 75.499 62.3584Z" fill="#FE161E" stroke="#FE161E" stroke-width="12.4771"/>
<path d="M75.499 105.136C76.9756 105.136 78.1728 106.333 78.1729 107.81C78.1729 109.286 76.9757 110.483 75.499 110.483C74.0224 110.483 72.8252 109.286 72.8252 107.81C72.8252 106.333 74.0225 105.136 75.499 105.136Z" fill="#FE161E" stroke="#FE161E" stroke-width="12.4771"/>
<path d="M96.3387 74.3929C97.077 75.6717 96.6387 77.3071 95.36 78.0454C94.0812 78.7838 92.4458 78.3455 91.7075 77.0667C90.9692 75.788 91.4074 74.1525 92.6862 73.4142C93.9649 72.676 95.6004 73.1142 96.3387 74.3929Z" fill="#FE161E" stroke="#FE161E" stroke-width="12.4771"/>
<path d="M59.2908 95.7826C60.0291 97.0613 59.5909 98.6967 58.3122 99.4351C57.0334 100.173 55.398 99.7352 54.6596 98.4564C53.9214 97.1776 54.3596 95.5422 55.6383 94.8039C56.9171 94.0656 58.5525 94.5039 59.2908 95.7826Z" fill="#FE161E" stroke="#FE161E" stroke-width="12.4771"/>
<path d="M96.3387 98.4489C97.077 97.1701 96.6387 95.5347 95.36 94.7964C94.0812 94.058 92.4458 94.4963 91.7075 95.7751C90.9692 97.0538 91.4074 98.6893 92.6862 99.4276C93.9649 100.166 95.6004 99.7276 96.3387 98.4489Z" fill="#FE161E" stroke="#FE161E" stroke-width="12.4771"/>
<path d="M59.2908 77.0592C60.0291 75.7805 59.5909 74.1451 58.3122 73.4067C57.0334 72.6684 55.398 73.1066 54.6596 74.3854C53.9214 75.6642 54.3596 77.2996 55.6383 78.0379C56.9171 78.7762 58.5525 78.3379 59.2908 77.0592Z" fill="#FE161E" stroke="#FE161E" stroke-width="12.4771"/>
<path d="M56.7842 75.7269L75.4998 65.0322L94.2154 75.7269M56.7842 75.7269V97.1162L75.4998 107.811M56.7842 75.7269L75.4998 86.4215M75.4998 107.811L94.2154 97.1162V75.7269M75.4998 107.811V86.4215M94.2154 75.7269L75.4998 86.4215" stroke="#FE161E" stroke-width="5.13428"/>
<path d="M75.4992 11.5576L141.449 48.9889M75.4992 11.5576V86.4201M75.4992 11.5576L42.524 30.2732L9.54883 48.9889M9.54883 48.9889V123.851M9.54883 48.9889L75.4992 86.4201M9.54883 123.851L75.4992 86.4201M9.54883 123.851L42.524 142.567L75.4992 161.283M75.4992 161.283L141.449 123.851M75.4992 161.283V86.4201M141.449 123.851L75.4992 86.4201M141.449 123.851V86.4201V48.9889M141.449 48.9889L75.4992 86.4201M75.4992 86.4201L94.0604 96.9549M75.4992 86.4201L56.9379 96.9549M75.4992 86.4201V65.2068" stroke="#FE161E" stroke-width="5.13428"/>
</svg>
